<svg xmlns="http://www.w3.org/2000/svg" width="75" height="15.889" viewBox="30 48 75 15.889"><g data-name="Logo"><path d="M43.713 62.015c-1.266-1.248-1.899-2.78-1.899-4.59 0-1.812.633-3.342 1.9-4.592 1.265-1.248 2.81-1.873 4.634-1.873 1.824 0 3.372.625 4.644 1.873 1.272 1.25 1.908 2.78 1.908 4.591 0 1.812-.636 3.345-1.908 4.6-1.272 1.243-2.82 1.865-4.644 1.865-1.824 0-3.37-.624-4.635-1.874zm54.5 1.625v-4.848l-4.301-7.584h2.808l2.736 5.186 2.736-5.186H105l-4.32 7.584v4.848h-2.466zm-11.74 0V51.208h2.483v10.088h4.806v2.344h-7.29zm-5.587 0-4.5-5.825v5.825h-2.484V51.208h2.484v5.488l4.32-5.488h2.862l-4.662 6.039 4.842 6.393h-2.862zM30 63.64V51.208h4.968c1.08 0 1.989.329 2.727.986.738.657 1.107 1.495 1.107 2.513 0 1.03-.396 1.86-1.188 2.486 1.104.628 1.656 1.576 1.656 2.842 0 1.054-.378 1.918-1.134 2.593-.756.675-1.686 1.012-2.79 1.012H30zm29.469-4.584c-1.266-1.25-1.9-2.78-1.9-4.591 0-1.812.634-3.342 1.9-4.591C60.735 48.624 62.28 48 64.104 48c1.824 0 3.372.624 4.644 1.874 1.272 1.25 1.908 2.78 1.908 4.59 0 1.812-.636 3.346-1.908 4.6-1.272 1.244-2.82 1.865-4.644 1.865-1.824 0-3.369-.624-4.635-1.873z" fill="#fff" fill-rule="evenodd" data-name="BOOKLY"/><path d="M59.83 63.64h9" stroke-linejoin="round" stroke-linecap="round" stroke-width="1.5" stroke="#fff" fill="transparent" data-name="Path 72"/></g></svg>